<svg width="25" height="23" viewBox="0 0 25 23" fill="none" xmlns="http://www.w3.org/2000/svg">
<path d="M20.108 11.2328C20.44 11.5649 20.8306 11.5942 21.1627 11.2621L23.5552 8.87937C23.858 8.56687 23.8384 8.15671 23.5064 7.83445L22.9205 7.25828C22.6275 6.94578 22.4224 6.90671 22.1002 6.93601L21.1627 7.03367L20.5572 6.44773L20.8306 5.32468C20.9771 4.76804 20.7623 4.19187 20.1763 3.60593L18.233 1.6821C16.2603 -0.25149 11.8072 -0.134303 10.0201 1.85788C9.65875 2.25828 9.71734 2.66843 9.95172 2.9321C10.1275 3.13718 10.4498 3.25437 10.7134 3.12742C12.1295 2.46335 13.6627 2.23874 14.9517 2.81492L14.1509 4.8657C13.8873 5.54929 14.024 6.02781 14.4634 6.46726L16.2408 8.2446C16.563 8.5571 16.9048 8.65476 17.4224 8.54734L18.7017 8.29343L19.2974 8.8989L19.2095 9.81687C19.1705 10.1782 19.2095 10.3735 19.522 10.6762L20.108 11.2328ZM0.566952 20.94L1.58258 21.9654C2.40289 22.7857 3.41851 22.7173 4.24859 21.77L15.4107 9.02585C15.3521 8.97703 15.3033 8.9282 15.2545 8.87937L13.692 7.31687C13.6431 7.25828 13.5845 7.19968 13.5259 7.15085L0.781796 18.2935C-0.185001 19.1236 -0.25336 20.1294 0.566952 20.94Z" fill="#2B313F"/>
<path d="M19.5659 20.6279C19.8589 20.9111 20.3472 20.9209 20.6304 20.6279C20.9233 20.3252 20.9331 19.8565 20.6304 19.5635L3.28663 2.21973C2.99366 1.92676 2.51514 1.92676 2.21241 2.21973C1.9292 2.5127 1.9292 3.00098 2.21241 3.28419L19.5659 20.6279Z" fill="#2B313F"/>
</svg>
